<?xml version="1.0" standalone="no"?>
<!DOCTYPE svg PUBLIC "-//W3C//DTD SVG 20010904//EN"
 "http://www.w3.org/TR/2001/REC-SVG-20010904/DTD/svg10.dtd">
<svg version="1.0" xmlns="http://www.w3.org/2000/svg"
 width="250.000000pt" height="250.000000pt" viewBox="0 0 250.000000 250.000000"
 preserveAspectRatio="xMidYMid meet">
<metadata>
Created by potrace 1.11, written by Peter Selinger 2001-2013
</metadata>
<g transform="translate(0.000000,250.000000) scale(0.100000,-0.100000)"
fill="#000000" stroke="none">
<path d="M0 1250 l0 -1250 268 1 c147 1 262 3 256 5 -12 5 1 93 15 104 3 3 6
17 7 33 2 106 5 131 13 118 5 -8 16 -11 25 -8 9 4 15 3 15 -1 -3 -20 3 -23 18
-11 15 12 16 12 10 -3 -3 -10 -2 -18 3 -18 6 0 10 9 10 20 0 11 -7 20 -15 20
-16 0 -19 9 -7 27 7 12 35 3 33 -11 -2 -15 0 -16 19 -6 11 6 17 16 14 25 -4 8
-1 15 5 15 6 0 11 -4 11 -10 0 -5 7 -7 15 -4 8 4 15 10 15 16 0 5 -4 6 -10 3
-16 -10 -12 11 5 25 14 12 19 7 16 -15 -1 -5 6 -1 14 9 12 16 12 22 2 29 -8 6
-4 7 11 4 15 -4 22 -1 19 6 -3 7 -8 11 -13 10 -5 0 -15 5 -22 13 -11 12 -9 14
7 14 15 0 18 5 14 22 -5 23 -5 23 11 3 13 -17 17 -18 25 -5 9 12 11 12 17 -3
8 -21 24 -22 24 -2 0 8 -5 15 -11 15 -7 0 -9 10 -5 25 4 15 2 25 -4 25 -6 0
-8 5 -5 10 4 6 11 8 16 5 5 -4 9 -1 9 4 0 6 -5 11 -10 11 -6 0 -3 15 7 33 9
17 16 38 15 45 -2 6 2 12 9 12 7 0 9 -9 4 -27 l-6 -28 21 22 c11 13 24 23 27
23 4 0 2 -5 -5 -12 -17 -17 -15 -28 5 -21 11 4 14 3 9 -5 -4 -7 -2 -12 3 -12
6 0 11 9 11 19 0 18 25 36 44 32 5 -1 6 5 3 14 -4 8 -2 15 3 15 15 0 17 34 2
57 -7 12 -15 36 -17 53 -3 25 0 33 14 37 13 3 17 11 13 26 -5 20 -6 20 -12 1
-5 -12 -7 -5 -7 23 0 41 0 41 19 23 11 -10 17 -23 13 -29 -3 -6 -4 -11 -1 -11
3 0 10 10 17 21 9 17 8 20 -1 14 -10 -6 -12 -1 -8 18 3 15 1 24 -3 21 -24 -14
15 56 42 76 10 8 69 106 69 115 0 14 -34 -28 -53 -65 -10 -19 -30 -50 -46 -69
-23 -28 -29 -31 -34 -17 -4 9 -3 15 2 12 4 -3 13 6 19 19 7 14 16 25 22 25 6
0 8 5 5 10 -4 6 -1 17 5 25 6 8 8 20 4 26 -4 7 -3 9 3 6 11 -7 47 53 57 93 3
14 -3 7 -13 -15 -13 -26 -20 -33 -20 -21 -1 19 -1 19 -15 1 -12 -17 -13 -16
-10 18 3 21 0 37 -6 37 -5 0 -10 14 -10 30 0 17 5 30 10 30 6 0 8 12 6 27 -3
15 0 33 6 40 7 9 7 13 -1 13 -6 0 -11 -4 -11 -8 0 -5 -6 -9 -14 -9 -8 0 -11 8
-8 19 2 10 8 15 13 12 5 -3 6 2 3 10 -4 10 -1 16 7 16 11 0 11 2 -1 9 -8 6
-17 8 -20 6 -4 -2 -7 2 -7 9 0 8 6 12 14 9 8 -3 13 3 13 17 0 11 4 18 10 15 6
-3 7 1 4 9 -3 9 -1 16 4 16 17 0 19 33 4 57 -8 13 -17 38 -22 56 -7 32 -6 34
17 31 27 -3 26 4 -8 82 -23 52 -36 60 -15 9 8 -19 13 -35 10 -35 -3 0 -11 14
-18 32 -17 39 -4 68 28 60 16 -4 18 -2 10 7 -10 11 -20 14 -53 20 -3 1 4 7 14
15 11 8 26 12 35 9 10 -3 10 -1 -2 7 -20 12 -25 36 -6 24 7 -4 8 -3 4 5 -6 9
-11 9 -21 1 -10 -8 -15 -8 -21 1 -5 8 -3 9 6 4 10 -6 12 -3 8 13 -4 12 -2 20
3 16 5 -3 9 -1 9 5 0 5 -8 15 -17 20 -10 6 -13 11 -7 11 6 0 17 -7 24 -15 18
-21 24 -11 10 15 -6 12 -13 31 -15 42 -3 11 -11 28 -18 37 -8 9 -13 26 -12 39
1 16 -2 21 -12 17 -8 -3 -16 -5 -19 -5 -2 0 -1 -7 3 -15 7 -20 -14 -16 -40 7
-14 12 -18 26 -15 47 3 20 0 32 -9 36 -8 2 -11 10 -7 17 5 8 2 9 -11 4 -15 -5
-16 -4 -5 9 10 12 10 15 -2 15 -8 0 -15 6 -15 14 0 8 3 15 6 14 18 -2 20 3 9
16 -7 8 -16 12 -20 9 -5 -2 -8 1 -8 6 0 6 5 11 11 11 5 0 7 6 4 13 -4 6 9 -6
29 -28 19 -22 35 -44 36 -50 0 -5 5 -28 11 -49 8 -30 13 -36 21 -25 7 10 8 6
4 -13 -4 -16 -2 -28 4 -28 5 0 10 12 10 27 l0 27 26 -35 c39 -51 53 -90 86
-238 35 -160 47 -191 93 -242 19 -22 35 -42 35 -47 0 -11 132 2 158 16 12 7
22 20 22 28 0 8 15 29 34 47 19 18 37 42 41 55 6 22 7 22 21 5 7 -10 14 -26
14 -35 0 -12 5 -16 18 -12 13 5 14 4 3 -4 -7 -5 -11 -15 -7 -21 5 -7 1 -9 -8
-5 -10 4 -16 1 -16 -8 0 -19 25 -53 39 -53 6 0 11 -4 10 -10 0 -5 -7 -9 -15
-7 -12 3 -19 -9 -15 -30 2 -13 -13 -9 -39 9 -24 16 -24 16 -11 0 12 -15 11
-17 -3 -17 -10 0 -27 5 -39 11 -22 12 -22 12 -3 -10 19 -21 19 -21 0 -21 -11
0 -30 7 -42 16 -25 17 -29 10 -7 -12 17 -17 21 -39 5 -29 -23 14 -8 -14 16
-29 14 -10 23 -23 21 -29 -4 -13 37 -57 54 -57 5 0 8 -3 7 -7 -4 -12 28 -54
35 -46 4 3 7 1 7 -5 0 -7 8 -20 18 -30 9 -11 32 -35 50 -54 40 -43 54 -109 21
-101 -10 3 -19 10 -19 15 0 5 -4 7 -9 4 -5 -4 -11 -3 -14 1 -2 5 -2 3 -1 -4 2
-7 -1 -15 -6 -18 -6 -4 -10 0 -10 7 -1 9 -5 7 -14 -4 -7 -10 -16 -14 -20 -10
-5 4 -7 0 -6 -8 4 -27 0 -41 -10 -35 -5 3 -6 13 -3 23 6 15 5 15 -11 3 -11 -9
-13 -18 -7 -24 10 -10 8 -23 -16 -76 -12 -27 -13 -39 -4 -53 16 -26 14 -28
-21 -21 l-33 6 28 -22 c15 -13 25 -27 22 -32 -6 -9 25 -58 37 -59 11 0 58 -42
58 -52 0 -4 -8 -8 -17 -8 -11 -1 -4 -7 15 -15 36 -16 43 -26 10 -17 -14 3 -19
2 -14 -6 4 -7 2 -12 -3 -12 -24 0 -9 -30 22 -46 31 -16 31 -16 17 1 -12 15 -8
14 30 -5 25 -12 47 -25 50 -29 3 -3 14 -8 25 -9 36 -7 120 -54 148 -84 25 -27
31 -41 28 -60 0 -4 6 -5 14 -2 9 4 15 0 16 -10 1 -9 2 -22 3 -28 1 -7 -2 -16
-7 -19 -5 -4 -3 -17 4 -30 7 -13 13 -27 14 -31 0 -3 3 -10 8 -14 4 -4 7 -23 8
-43 0 -30 2 -33 10 -16 8 18 8 17 6 -5 -1 -14 9 -45 24 -69 25 -40 25 -45 10
-60 -15 -15 -16 -15 -19 1 -5 30 -22 20 -22 -12 0 -17 6 -33 14 -36 8 -3 12
-14 8 -27 -3 -12 -2 -19 3 -15 4 4 11 22 16 40 l9 33 -5 -38 -4 -37 255 0 254
0 0 1250 0 1250 -1250 0 -1250 0 0 -1250z m873 997 c3 -8 -1 -14 -9 -14 -15 0
-18 9 -7 20 9 9 10 9 16 -6z m984 -116 c33 -21 51 -57 35 -73 -14 -14 -66 -18
-74 -4 -6 8 -8 8 -8 -1 0 -7 -9 -13 -20 -13 -11 0 -20 5 -20 11 0 5 -5 7 -10
4 -8 -5 -7 -12 2 -23 8 -9 -1 -7 -19 7 -18 12 -33 18 -33 12 0 -6 -8 -8 -17
-4 -15 5 -16 3 -5 -8 23 -25 12 -33 -13 -9 -14 13 -25 27 -25 31 0 4 23 26 51
48 59 47 104 53 156 22z m-200 -99 c10 -17 8 -18 -12 -14 -15 2 -22 9 -18 18
7 19 16 18 30 -4z m238 -2 c3 -5 1 -10 -4 -10 -6 0 -11 5 -11 10 0 6 2 10 4
10 3 0 8 -4 11 -10z m-905 -76 c0 -8 -5 -12 -10 -9 -6 4 -8 11 -5 16 9 14 15
11 15 -7z m25 -4 c3 -5 1 -10 -4 -10 -6 0 -11 5 -11 10 0 6 2 10 4 10 3 0 8
-4 11 -10z m25 -24 c0 -3 -4 -8 -10 -11 -5 -3 -10 -1 -10 4 0 6 5 11 10 11 6
0 10 -2 10 -4z m-50 -60 c0 -5 -7 -1 -15 10 -8 10 -14 24 -14 29 0 6 6 1 14
-9 8 -11 15 -24 15 -30z m18 9 c-3 -3 -9 2 -12 12 -6 14 -5 15 5 6 7 -7 10
-15 7 -18z m659 -42 c8 -15 8 -23 1 -23 -5 0 -28 -15 -51 -32 -26 -21 -42 -28
-45 -20 -2 7 -8 9 -14 6 -7 -4 -6 -9 1 -13 7 -5 2 -15 -14 -29 -14 -12 -25
-19 -25 -16 0 4 20 49 45 100 l45 94 23 -23 c12 -12 27 -32 34 -44z m-600
-245 c-3 -7 -5 -2 -5 12 0 14 2 19 5 13 2 -7 2 -19 0 -25z m372 -172 c11 -14
6 -15 -27 -7 -4 1 8 21 12 21 2 0 9 -6 15 -14z m-399 -293 c0 -7 -4 -13 -10
-13 -5 0 -10 12 -10 28 0 21 2 24 10 12 5 -8 10 -21 10 -27z m-54 -218 c-4
-24 -16 -30 -16 -7 0 12 4 22 9 22 5 0 8 -7 7 -15z m-24 -263 c3 -11 0 -19 -7
-19 -7 0 -10 8 -7 19 2 10 6 18 7 18 1 0 5 -8 7 -18z m-131 -69 c-12 -20 -14
-14 -5 12 4 9 9 14 11 11 3 -2 0 -13 -6 -23z m955 -7 c17 -13 17 -14 1 -12
-19 2 -47 26 -31 26 6 0 19 -6 30 -14z m-1118 -281 c-3 -3 -9 2 -12 12 -6 14
-5 15 5 6 7 -7 10 -15 7 -18z m-68 -7 c0 -11 -12 -10 -30 2 -12 7 -10 9 8 7
12 0 22 -5 22 -9z m-76 -157 c-4 -17 -9 -30 -11 -27 -3 2 -2 19 2 36 9 41 17
33 9 -9z m-27 -93 c-3 -8 -6 -5 -6 6 -1 11 2 17 5 13 3 -3 4 -12 1 -19z"/>
<path d="M1828 2078 c5 -5 16 -8 23 -6 8 3 3 7 -10 11 -17 4 -21 3 -13 -5z"/>
<path d="M1050 1756 c0 -2 9 -6 20 -9 11 -3 18 -1 14 4 -5 9 -34 13 -34 5z"/>
<path d="M1090 1709 c0 -5 -4 -8 -9 -5 -19 12 -19 -24 0 -47 12 -16 17 -32 12
-44 -8 -23 1 -15 17 16 9 19 9 22 0 16 -10 -6 -12 -1 -8 18 3 16 1 24 -5 20
-5 -3 -6 3 -2 16 3 11 4 21 1 21 -3 0 -6 -5 -6 -11z"/>
<path d="M1071 1534 c0 -11 3 -14 6 -6 3 7 2 16 -1 19 -3 4 -6 -2 -5 -13z"/>
<path d="M1075 1234 c-4 -10 -11 -27 -16 -37 -7 -12 -4 -25 8 -44 14 -21 19
-23 21 -10 2 9 -1 24 -6 34 -6 10 -7 26 -1 41 5 14 7 27 5 30 -3 3 -8 -4 -11
-14z"/>
<path d="M990 740 c0 -5 5 -10 11 -10 5 0 7 5 4 10 -3 6 -8 10 -11 10 -2 0 -4
-4 -4 -10z"/>
<path d="M1620 586 c0 -2 7 -7 16 -10 8 -3 12 -2 9 4 -6 10 -25 14 -25 6z"/>
<path d="M840 460 c0 -5 5 -10 10 -10 6 0 10 5 10 10 0 6 -4 10 -10 10 -5 0
-10 -4 -10 -10z"/>
<path d="M1877 379 c-8 -28 -3 -34 11 -16 6 7 7 19 3 26 -6 9 -10 6 -14 -10z"/>
<path d="M1912 255 c0 -11 4 -33 8 -50 l8 -30 0 30 c0 17 -3 39 -8 50 l-9 20
1 -20z"/>
<path d="M541 84 c0 -11 3 -14 6 -6 3 7 2 16 -1 19 -3 4 -6 -2 -5 -13z"/>
</g>
</svg>
